HIERARCHY
ROOT Hips
{
  OFFSET -69.4423 88.0299 51.6846
  CHANNELS 6 Xposition Yposition Zposition Zrotation Xrotation Yrotation
  JOINT Spine
  {
    OFFSET 12.0259 -0.162853 1.93176e-005
    CHANNELS 3 Zrotation Xrotation Yrotation
    JOINT Spine1
    {
      OFFSET 15.3169 -0.0121909 0
      CHANNELS 3 Zrotation Xrotation Yrotation
      JOINT Spine2
      {
        OFFSET 15.3176 -0.0121922 0
        CHANNELS 3 Zrotation Xrotation Yrotation
        JOINT Neck
        {
          OFFSET 19.9142 1.56236 0
          CHANNELS 3 Zrotation Xrotation Yrotation
          JOINT Head
          {
            OFFSET 6.92646 0 0
            CHANNELS 3 Zrotation Xrotation Yrotation
            End Site
            {
              OFFSET 20.7666 0 0
            }
          }
          JOINT LeftShoulder
          {
            OFFSET -4.94072 -1.14703 8.14416
            CHANNELS 3 Zrotation Xrotation Yrotation
            JOINT LeftArm
            {
              OFFSET 14.108 0 -2.74767e-005
              CHANNELS 3 Zrotation Xrotation Yrotation
              JOINT LeftForeArm
              {
                OFFSET 28.5802 -0.0783412 -0.0284884
                CHANNELS 3 Zrotation Xrotation Yrotation
                JOINT LeftHand
                {
                  OFFSET 27.092 0 0
                  CHANNELS 3 Zrotation Xrotation Yrotation
                  End Site
                  {
                    OFFSET 9.55928 -0.186424 0.145352
                  }
                }
              }
            }
          }
          JOINT RightShoulder
          {
            OFFSET -7.15748 -1.33027 -6.24935
            CHANNELS 3 Zrotation Xrotation Yrotation
            JOINT RightArm
            {
              OFFSET 14.108 0 1.82997e-005
              CHANNELS 3 Zrotation Xrotation Yrotation
              JOINT RightForeArm
              {
                OFFSET 28.5802 -0.0707221 2.30684e-005
                CHANNELS 3 Zrotation Xrotation Yrotation
                JOINT RightHand
                {
                  OFFSET 27.092 0 -1.30073e-005
                  CHANNELS 3 Zrotation Xrotation Yrotation
                  End Site
                  {
                    OFFSET 9.55929 -0.186417 -0.145354
                  }
                }
              }
            }
          }
        }
      }
    }
  }
  JOINT LeftUpLeg
  {
    OFFSET 0.00499725 -0.534999 8.837
    CHANNELS 3 Zrotation Xrotation Yrotation
    JOINT LeftLeg
    {
      OFFSET 39.9035 -0.00124594 0.000252775
      CHANNELS 3 Zrotation Xrotation Yrotation
      JOINT LeftFoot
      {
        OFFSET 39.6689 0 0
        CHANNELS 3 Zrotation Xrotation Yrotation
        JOINT LeftToe
        {
          OFFSET 10.1624 13.6296 0
          CHANNELS 3 Zrotation Xrotation Yrotation
          End Site
          {
            OFFSET 8.38147 0 0
          }
        }
      }
    }
  }
  JOINT RightUpLeg
  {
    OFFSET 0.00499725 -0.535 -8.837
    CHANNELS 3 Zrotation Xrotation Yrotation
    JOINT RightLeg
    {
      OFFSET 39.9036 -0.000268477 0.000106433
      CHANNELS 3 Zrotation Xrotation Yrotation
      JOINT RightFoot
      {
        OFFSET 39.6689 1.17892e-005 0
        CHANNELS 3 Zrotation Xrotation Yrotation
        JOINT RightToe
        {
          OFFSET 10.1624 13.6296 0
          CHANNELS 3 Zrotation Xrotation Yrotation
          End Site
          {
            OFFSET 8.38147 0 0
          }
        }
      }
    }
  }
}
MOTION
Frames:	20
Frame Time:	0.0333333
62.0147 87.5248 32.1754 -86.607 21.2628 -177.78 1.08321 2.33412 -0.0312001 2.17041 4.66774 -0.106583 2.1704 4.66771 -0.106595 -11.9382 4.79806 -6.43345 61.1883 7.9984 -5.0396 -168.975 4.87477 -90.7728 -3.23533 5.19451 84.5078 -20.9421 2.1878 -13.5996 14.8642 -84.184 16.8313 -168.967 3.12894 77.5587 -1.55386 -4.44067 -78.0557 -28.2064 -4.03187 16.8677 4.64487 84.7676 -4.4678 -6.93949 -2.44398 -172.604 -21.3965 0.846027 -1.32316 -2.64069 1.32305 0.260995 90 -1.43125e-014 6.36111e-015 1.93128 1.99722 163.843 -31.3106 -0.29483 0.37087 1.84299 15.959 1.96128 90 -6.95746e-016 6.36111e-015 
63.4975 87.6867 29.659 -86.5714 19.1013 -176.431 1.15608 1.98839 -0.124123 2.31857 3.97434 -0.288494 2.31856 3.97436 -0.288501 -11.8827 5.04227 -7.02748 61.6636 8.26987 -5.49184 -168.941 5.06777 -91.3767 -4.99912 4.5231 85.1441 -20.9574 2.18146 -13.6664 15.2271 -84.3938 17.2411 -168.962 3.23767 76.9453 -1.11427 -4.13288 -77.6582 -29.03 -4.25859 17.3082 5.631 85.9784 -5.50747 -6.7123 -2.97792 -175.543 -20.4104 0.905088 -1.33713 -1.94451 4.20772 0.737584 90 0 -3.18055e-015 0.989907 0.733346 161.336 -33.5781 -0.203241 0.282303 -1.04693 17.1212 3.056 90 1.25234e-014 -9.54166e-015 
64.7004 87.9287 27.6135 -86.7644 17.6069 -175.939 1.17984 1.7992 -0.0561959 2.36318 3.59733 -0.149419 2.36318 3.59731 -0.14943 -11.7127 5.4081 -7.55359 61.478 8.55365 -6.2103 -168.993 5.43159 -91.9603 -7.14247 3.72528 85.5075 -21.0161 2.18909 -13.7505 14.2634 -84.0654 16.2585 -169.059 3.51312 76.3572 -1.37129 -4.13734 -77.4842 -29.503 -4.39841 17.5679 6.90555 86.7395 -6.79039 -6.82549 -0.737223 -176.932 -19.6338 0.938789 -1.28661 -1.75062 8.41707 1.36742 90 1.59028e-015 3.18055e-015 -0.576839 0.488535 160.904 -35.983 -0.130569 0.224647 -3.25845 19.446 4.14071 90 -5.1684e-015 6.36111e-015 
65.686 88.1754 26.0456 -86.9855 16.001 -176.298 1.22035 1.84944 -0.016747 2.44313 3.6986 -0.0728137 2.44312 3.6986 -0.0728253 -12.2258 4.89413 -7.35299 61.9966 8.26361 -5.07944 -168.575 4.92987 -91.7944 -11.5251 3.64067 84.561 -22.1442 2.3462 -14.3522 17.1041 -85.0771 19.1064 -168.628 2.9165 76.6128 -1.21668 -3.75165 -78.2858 -29.3612 -4.35375 17.4899 6.07009 86.3343 -5.94076 -7.13791 0.110883 -177.452 -19.6304 0.950276 -1.24402 -1.47432 10.7801 1.67203 90 -7.95139e-015 -3.18055e-015 -1.8764 0.495687 162.345 -38.005 -0.205572 0.22112 0.0713058 16.5945 2.47593 90 9.44227e-015 -6.36111e-015 
66.4669 88.3885 24.7902 -87.2449 13.9705 -177.093 1.21024 1.55528 0.265315 2.4146 3.11627 0.498132 2.41458 3.1163 0.498119 -12.0754 5.33732 -7.94652 61.7117 8.91292 -5.55579 -168.636 5.31296 -92.5976 -14.6879 4.0105 84.4911 -24.108 2.66646 -15.3875 25.8769 -86.8385 27.9046 -168.676 3.25795 75.9475 -3.39165 -3.70485 -77.8112 -28.751 -4.17491 17.1689 4.41671 85.2401 -4.2569 -7.85279 -1.72549 -177.784 -20.4545 0.956564 -1.23662 -1.03219 10.6329 1.60483 90 4.77083e-015 -3.18055e-015 -2.94114 1.3808 165.228 -38.9778 -0.324329 0.21652 4.34494 10.4025 0.502872 90 3.97569e-016 3.18055e-015 
67.1609 88.5367 23.7372 -87.3497 12.3332 -177.77 1.27359 1.43397 0.408339 2.53813 2.87715 0.785236 2.53813 2.87716 0.785221 -12.0592 5.27754 -7.76714 61.112 8.67214 -5.60946 -168.671 5.35665 -92.5545 -16.4654 3.97894 83.9066 -26.1095 3.02581 -16.4269 32.5147 -87.6057 34.5471 -168.696 3.22858 76.1159 -4.28434 -3.07648 -78.2731 -28.1227 -3.99735 16.8368 2.94859 83.2371 -2.73555 -8.29115 -2.81109 -178.096 -21.1863 0.961394 -1.21182 -0.451866 10.5495 1.52788 90 -8.74653e-015 -1.27222e-014 -4.3598 1.92979 168.464 -39.6979 -0.388967 0.186124 7.44988 6.07014 -0.512795 90 -1.59028e-015 -3.18055e-015 
67.7595 88.6092 22.9044 -87.5071 11.0846 -178.299 1.2789 1.49342 0.3904 2.54107 2.99558 0.747991 2.54107 2.99556 0.74798 -11.9352 4.89818 -7.77466 60.6368 8.70118 -4.47759 -168.854 5.00748 -92.6183 -18.147 4.49784 82.6977 -28.0739 3.40527 -17.4119 59.4219 -88.5558 61.4954 -168.877 2.81434 76.2256 -5.40665 -3.14081 -79.3735 -28.0071 -3.95911 16.7836 2.37096 81.7153 -2.1458 -8.75516 -2.94686 -178.198 -21.9301 0.965864 -1.16791 0.352642 11.1523 1.50266 90 7.95139e-016 6.36111e-015 -6.35495 1.80971 171.972 -40.6349 -0.424865 0.149608 9.5176 4.80855 -0.941267 90 -5.96354e-015 -0 
68.3514 88.5494 22.0581 -87.62 9.88882 -178.511 1.29601 1.42178 0.324459 2.58515 2.85106 0.617101 2.58514 2.85104 0.617096 -11.8457 4.76906 -7.66778 60.4467 8.96248 -3.87294 -168.962 4.9274 -92.5992 -18.3865 4.6638 81.6675 -29.8714 3.78593 -18.3127 127.89 -88.4984 129.992 -168.99 2.68323 76.401 -7.02492 -3.12073 -80.2533 -28.2126 -4.00505 16.8984 2.56491 82.6316 -2.33889 -9.44502 -3.42347 -178.694 -23.103 0.975525 -1.10895 0.774316 11.6392 1.46625 90 4.77083e-015 -3.18055e-015 -8.52441 0.263028 174.911 -41.5629 -0.428427 0.0878647 12.0312 2.04783 -1.3058 90 3.47873e-015 -0 
69.0139 88.2917 21.1283 -87.5036 8.9995 -178.193 1.36273 1.44401 0.185525 2.72205 2.89237 0.336934 2.72205 2.89239 0.336921 -11.8935 4.61774 -8.10307 60.5211 9.05685 -3.24814 -168.887 4.70585 -93.0622 -18.553 4.54999 80.5874 -31.0727 4.06058 -18.9156 150.868 -87.5678 152.997 -168.951 2.39887 76.0515 -8.50376 -3.12766 -81.0018 -28.5571 -4.0951 17.0922 2.66958 82.8267 -2.46628 -9.74869 -3.01364 -179.679 -24.4336 0.984834 -1.00363 1.88952 12.5829 1.32523 90 -2.38542e-015 -6.36111e-015 -10.3338 -2.86721 176.689 -42.2511 -0.393986 0.0204581 13.797 -1.49056 -1.34136 90 0 -1.59028e-015 
69.7044 87.994 20.1864 -87.3722 8.83756 -177.598 1.40311 1.55846 -0.0269836 2.80854 3.11624 -0.0920549 2.80853 3.11627 -0.0920708 -11.6001 4.65522 -8.28068 60.6728 9.34133 -3.18192 -169.124 4.78013 -93.2442 -17.2948 4.08421 79.5014 -31.6224 4.2006 -19.1845 151.164 -87.624 153.287 -169.233 2.42828 75.94 -10.243 -3.27942 -81.7044 -28.989 -4.20608 17.3203 2.87461 83.166 -2.67658 -10.3773 -2.20635 179.158 -26.2293 0.997795 -0.923652 3.19969 13.2114 1.08675 90 3.18055e-015 -0 -11.7021 -5.95555 177.773 -42.3722 -0.34441 -0.0281665 15.182 -4.76959 -1.16972 90 -7.95139e-016 -1.59028e-015 
70.371 87.7218 19.2983 -87.1377 9.22708 -177.28 1.43267 1.79772 -0.159703 2.88013 3.59134 -0.364597 2.88014 3.59134 -0.364601 -11.4516 4.74393 -8.45205 61.1839 9.45907 -3.47051 -169.22 4.88421 -93.4059 -15.4921 3.48746 78.8521 -31.7064 4.24312 -19.2288 145.877 -87.9951 148.004 -169.363 2.49757 75.8054 -11.616 -3.34249 -82.215 -29.2474 -4.27106 17.4547 3.09343 83.5472 -2.89588 -10.3857 -1.32822 178.423 -27.4282 1.00099 -0.847464 3.66101 14.3085 0.979673 90 3.18055e-015 3.18055e-015 -12.2784 -7.89361 178.831 -41.9362 -0.354414 -0.0289126 14.6464 -5.16121 -1.14961 90 -7.95139e-016 1.59028e-015 
71.0182 87.6232 18.5043 -86.9467 9.98448 -177.095 1.43531 2.09025 -0.245835 2.88245 4.17398 -0.544412 2.88245 4.17401 -0.544419 -11.2413 4.90977 -8.37771 61.6727 9.64649 -3.99552 -169.395 5.1 -93.3207 -13.8189 3.2165 78.6264 -31.494 4.21989 -19.1161 151.131 -87.5218 153.292 -169.547 2.72181 75.8809 -12.6344 -3.31352 -82.5766 -29.2152 -4.24584 17.4211 2.95265 83.7462 -2.75315 -9.93596 -0.149043 177.94 -27.8148 1.00491 -0.799999 4.02446 15.3255 0.887298 90 3.57812e-015 -3.18055e-015 -12.2797 -6.76147 179.716 -41.4339 -0.424541 0.0371233 11.3801 -0.511875 -1.25025 90 -3.18055e-015 -1.59028e-015 
71.5358 87.5701 17.6666 -86.6607 10.6424 -177.148 1.50894 2.24479 -0.182681 3.02852 4.48445 -0.424838 3.02851 4.48442 -0.424851 -11.6186 5.52809 -8.84613 62.1069 10.0078 -5.18172 -168.879 5.5639 -93.8625 -11.5321 2.68305 79.091 -30.9882 4.12686 -18.8699 149.93 -87.6887 152.129 -169.046 3.20469 75.2757 -13.3094 -2.7852 -82.3034 -28.8876 -4.15412 17.2475 3.07802 83.9511 -2.87947 -10.0366 0.431464 177.563 -29.0979 1.00193 -0.745962 4.26594 16.1046 0.798806 90 -3.97569e-016 -6.36111e-015 -11.2621 -5.23248 179.459 -40.7296 -0.459187 0.0696885 11.119 0.817978 -1.2335 90 -7.95139e-015 3.18055e-015 
71.935 87.551 16.761 -86.2675 10.4244 -177.771 1.59995 2.37204 0.0572326 3.20165 4.74522 0.0482936 3.20165 4.74522 0.0482903 -11.6645 5.815 -8.59036 62.1724 9.61665 -6.50572 -168.822 5.89779 -93.6302 -10.8933 2.79234 80.0346 -30.4812 4.02792 -18.6328 145.033 -87.9266 147.269 -168.955 3.56787 75.436 -12.6462 -2.13356 -81.9156 -28.3879 -4.0268 16.9926 3.1634 83.8839 -2.97177 -10.9223 1.10771 177.996 -31.6439 0.972287 -0.65899 4.76533 17.9939 0.646618 90 4.37326e-015 -0 -10.4634 -4.64204 179.506 -40.1039 -0.480643 0.0557628 11.0332 1.40427 -1.22389 90 -2.38542e-015 3.18055e-015 
72.2476 87.6446 16.0296 -86.0045 9.90249 -178.305 1.70403 2.35307 0.303264 3.39987 4.71457 0.537132 3.39986 4.71458 0.537123 -12.2213 6.19665 -8.37096 62.5979 9.53758 -7.65588 -168.244 6.22655 -93.4776 -9.4774 2.62817 81.4468 -29.4167 3.80742 -18.1153 85.1263 -88.8133 87.3711 -168.362 3.9384 75.4662 -12.7607 -2.04798 -81.189 -28.2745 -4.00376 16.9469 3.47202 84.3441 -3.29225 -12.1621 1.70059 178.876 -34.1012 0.914445 -0.563919 6.09022 20.7501 0.186049 90 -5.56597e-015 -0 -9.86315 -4.56225 179.887 -39.5982 -0.510453 0.0460375 10.2725 2.67473 -1.13408 90 -3.97569e-015 1.59028e-015 
72.462 87.7403 15.3896 -86.0289 9.41629 -178.396 1.76519 2.41747 0.452693 3.51593 4.84813 0.831805 3.51592 4.84811 0.831796 -12.3706 6.34822 -8.25847 62.3236 9.60838 -8.02916 -168.118 6.33791 -93.3756 -9.69346 3.25152 82.8178 -28.5998 3.62484 -17.7085 36.3407 -87.999 38.5649 -168.195 4.11726 75.4673 -12.3178 -1.98245 -80.5351 -28.033 -3.94306 16.8262 3.6878 84.9661 -3.50059 -13.7264 2.57255 -179.795 -35.845 0.858064 -0.473948 6.07599 25.7876 -0.16272 90 -1.15295e-014 -6.36111e-015 -9.48253 -2.92757 -179.635 -39.0813 -0.541348 0.0736982 9.84121 5.39283 -1.04364 90 0 -0 
72.8363 88.0141 14.6062 -85.6626 8.14321 -178.631 1.90577 2.30903 0.593629 3.79213 4.63695 1.11151 3.79212 4.63695 1.1115 -12.522 6.29548 -8.0842 61.8916 9.47025 -7.97356 -168.03 6.22864 -93.169 -10.7304 4.30048 83.9009 -28.0029 3.47021 -17.3977 18.727 -86.7495 20.9376 -168.043 4.10878 75.5887 -11.6596 -1.66051 -80.0469 -27.6262 -3.85368 16.6367 3.84234 84.5721 -3.67692 -14.4071 1.01802 -178.563 -36.4527 0.848788 -0.465671 4.95543 27.7793 0.140317 90 -4.77083e-015 -6.36111e-015 -8.53103 -3.04379 -179.789 -38.3031 -0.550924 0.0756769 9.02065 6.27533 -0.881689 90 1.59028e-015 3.18055e-015 
73.3059 88.2138 13.5771 -85.4148 6.3861 -177.956 2.01033 2.1752 0.515496 4.00536 4.36757 0.955422 4.00534 4.36755 0.955417 -12.3934 6.11406 -7.68219 61.4741 9.2473 -7.8463 -168.24 6.10762 -92.6684 -11.9969 5.25534 84.55 -27.2215 3.27998 -16.9814 9.43964 -84.3518 11.6204 -168.202 4.08032 76.0008 -10.0806 -1.24568 -80.0855 -27.2183 -3.74786 16.4155 3.38229 84.1709 -3.20513 -13.8978 0.130103 -177.936 -35.6543 0.811666 -0.569781 9.40949 17.6194 -0.275241 90 -2.38542e-015 6.36111e-015 -7.56948 -3.55396 178.886 -37.5611 -0.538197 0.114353 8.92154 6.85923 -0.831034 90 2.38542e-015 6.36111e-015 
73.7866 88.5082 12.692 -85.3887 5.69093 -177.622 2.04964 2.20428 0.501449 4.08446 4.42545 0.92479 4.08445 4.42542 0.924772 -12.248 5.91544 -7.76393 61.6505 9.3307 -7.3732 -168.424 5.84757 -92.6399 -11.8541 5.87116 85.324 -26.366 3.08687 -16.5298 6.0151 -82.4657 8.13588 -168.363 3.91978 75.9428 -9.62485 -1.57012 -79.9198 -27.0416 -3.7064 16.3292 3.71893 84.7066 -3.5589 -13.4533 -0.32683 -176.336 -33.6821 0.889934 -0.770474 5.68384 9.73817 0.816669 90 7.95139e-016 4.77083e-015 -6.59612 -2.98825 178.239 -36.3991 -0.533304 0.166663 8.55202 8.32073 -0.684785 90 3.97569e-016 6.36111e-015 
74.2471 88.7319 11.7162 -85.7109 4.66575 -177.573 1.9826 2.18764 0.446891 3.95241 4.38984 0.818756 3.9524 4.38984 0.81874 -11.9663 5.70445 -7.34072 61.5876 9.08805 -7.30394 -168.775 5.71832 -92.0877 -10.5352 6.34852 85.4384 -25.3106 2.89346 -15.96 5.14732 -81.2502 7.29955 -168.697 3.88375 76.4133 -8.77686 -1.75153 -80.5306 -26.712 -3.63381 16.1701 4.08727 84.6115 -3.93858 -13.4753 -1.3967 -174.287 -31.4728 0.893133 -0.924053 1.5949 4.3551 0.808181 90 0 -1.59028e-015 -5.97115 -3.13013 177.768 -35.2483 -0.529785 0.208672 7.98443 9.46072 -0.485186 90 3.18055e-015 -0 
